<svg xmlns="http://www.w3.org/2000/svg" viewBox="0 0 943.652 329.34"><title>cph-logo-main</title><path d="M535.012,0H209.452c-90.64,0-182.79,74-204.7,164.67s34,164.67,125.39,164.67h90.64l24.17-99h-90.66c-36.26,0-58.92-29.46-49.85-66.47a90.13,90.13,0,0,1,82.35-66.43h108l-58.15,230.38h97.44l55.9-230.38h121.61a14.4,14.4,0,0,1,14.35,18.88,24.8,24.8,0,0,1-22.65,18.89H397.532l-25.68,99h106.5c65,0,129.92-52.87,145.78-117.08S599.972,0,535.012,0" style="fill:#006e96"/><path d="M610.542,114.06A82.24,82.24,0,0,0,597.7,41.55a68.18,68.18,0,0,0-30.22-21.91l-51.36,194.88A146.42,146.42,0,0,0,610.542,114.06Z" style="fill:#417da6"/><path d="M816.762,3.02l-34.75,133.7H667.2l34.74-133.7H598.462a112.93,112.93,0,0,1,24.93,21.91,110.83,110.83,0,0,1,18.13,95.93,175.78,175.78,0,0,1-129.17,124.63L491.2,327.02h126.14l27.19-105h114.82l-27.15,105H858.3l85.35-324Z" style="fill:#ffa400"/><path d="M535.012,0H209.452c-90.64,0-182.79,74-204.7,164.67s34,164.67,125.39,164.67h90.64l24.17-99h-90.66c-36.26,0-58.92-29.46-49.85-66.47a90.13,90.13,0,0,1,82.35-66.43h108l-58.15,230.38h97.44l55.9-230.38h121.61a14.4,14.4,0,0,1,14.35,18.88,24.8,24.8,0,0,1-22.65,18.89H397.532l-25.68,99h106.5c65,0,129.92-52.87,145.78-117.08S599.972,0,535.012,0" style="fill:#006e96"/></svg>